<?xml version="1.0" encoding="UTF-8" standalone="no"?>
<!-- Created with Inkscape (http://www.inkscape.org/) -->

<svg
   width="219.61391"
   height="96.925499"
   version="1.0"
   id="svg6"
   sodipodi:docname="TSmeta.svg"
   inkscape:version="1.1.1 (c3084ef, 2021-09-22)"
   xmlns:inkscape="http://www.inkscape.org/namespaces/inkscape"
   xmlns:sodipodi="http://sodipodi.sourceforge.net/DTD/sodipodi-0.dtd"
   xmlns="http://www.w3.org/2000/svg"
   xmlns:svg="http://www.w3.org/2000/svg">
  <defs
     id="defs10" />
  <sodipodi:namedview
     id="namedview8"
     pagecolor="#ffffff"
     bordercolor="#666666"
     borderopacity="1.0"
     inkscape:pageshadow="2"
     inkscape:pageopacity="0.0"
     inkscape:pagecheckerboard="0"
     showgrid="true"
     inkscape:zoom="4.8517716"
     inkscape:cx="88.42131"
     inkscape:cy="83.680773"
     inkscape:window-width="2047"
     inkscape:window-height="1402"
     inkscape:window-x="830"
     inkscape:window-y="25"
     inkscape:window-maximized="0"
     inkscape:current-layer="g4"
     fit-margin-top="0"
     fit-margin-left="0"
     fit-margin-right="0"
     fit-margin-bottom="0">
    <inkscape:grid
       type="xygrid"
       id="grid163"
       originx="-0.23992106"
       originy="-0.97518689" />
  </sodipodi:namedview>
  <g
     fill="#800000"
     stroke="#000000"
     stroke-linecap="round"
     stroke-width="0.11"
     id="g4"
     style="display:inline"
     transform="translate(-0.23992106,-0.97518689)">
    <path
       id="NH_TS"
       style="fill:#d40000"
       d="m 30.998047,1.6113281 c -0.389603,-0.02873 -2.171875,0.2841406 -3.921875,0.7128907 -5.2,1.3 -9.75625,3.0875 -13.15625,6.1875 -1.5,1.3 -4.3648439,4.2062502 -5.4648439,5.9062502 -3.7,5.6 -6.1367187,13.30664 -7.1367187,21.30664 -0.50532603,5.067621 -1.01829052,9.373052 -1.02343752,13.97461 0.1396,5.2295 1.32997502,9.349572 3.48437502,12.638672 3.6,6.2 10.5191391,10.783203 17.6191411,11.783203 5.8,0.96 10.953125,-0.198985 15.953124,-2.958985 0.74001,-0.38 1.447266,-0.801484 1.447266,-0.771484 0.057,0.065 -0.39,2.400391 -0.75,3.900391 -0.99,4.1 -2.899219,9 -4.699219,12 -3.000001,5.1 -7.599999,9 -13,11 -0.60004,0.22 -1.101562,0.459531 -1.101562,0.519531 -0.0054,0.0188 0.02253,0.0292 0.07813,0.0332 0.3896,0.0287 2.171875,-0.284141 3.921875,-0.712891 5.200001,-1.3 9.75625,-3.0875 13.15625,-6.1875 1.5,-1.3 4.364844,-4.204297 5.464844,-5.904297 3.7,-5.600002 6.136718,-13.308593 7.136718,-21.308593 0.50539,-5.068016 1.018798,-9.37163 1.023438,-13.97461 -0.1396,-5.2295 -1.328022,-9.349573 -3.482422,-12.638671 -3.6,-6.2 -10.52109,-10.783204 -17.621094,-11.783204 -5.8,-0.96 -10.953125,0.200938 -15.953125,2.960938 -0.74001,0.38 -1.447265,0.799531 -1.447265,0.769531 -0.057,-0.065 0.39,-2.400391 0.75,-3.900391 0.99,-4.1 2.899218,-8.999999 4.699218,-12 3,-5.0999997 7.6,-8.9999995 13,-10.9999995 0.60004,-0.22 1.101563,-0.4595313 1.101563,-0.5195313 0.005,-0.0188 -0.02252,-0.029203 -0.07813,-0.033203 z M 25.207031,35.773438 c 7.731209,0 13.999,6.266841 14,13.998046 h 0.01563 c -0.0029,1.387703 -0.207217,2.727234 -0.585937,3.992188 -1.72811,5.772066 -7.079924,9.977612 -13.41211,9.978516 -6.33432,-10e-7 -11.686271,-4.206218 -13.414062,-9.978516 -0.381024,-1.272946 -0.585739,-2.622645 -0.585938,-4.019531 h -0.01563 c 0.01599,-7.719878 6.278152,-13.969603 13.998047,-13.970703 z"
       inkscape:label="NH_TS" />
    <path
       style="display:inline;fill:#d40000"
       d="m 85.672536,1.0321286 c -0.389603,-0.02873 -2.171878,0.28414 -3.921878,0.71289 -5.2,1.3 -9.75625,3.0875004 -13.15625,6.1875004 -1.5,1.3 -4.364844,4.206251 -5.464844,5.906251 -3.7,5.6 -6.136719,13.30664 -7.136719,21.30664 -0.505326,5.067621 -1.018291,9.373052 -1.023438,13.97461 0.1396,5.2295 1.329976,9.349572 3.484376,12.638672 3.6,6.2 10.51914,10.783203 17.619141,11.783203 5.8,0.96 10.953122,-0.198985 15.953122,-2.958985 0.74001,-0.38 1.44727,-0.801484 1.44727,-0.771484 0.057,0.065 -0.39,2.400391 -0.75,3.900391 -0.99,4.1 -2.89922,8.999996 -4.69922,11.999996 -3.000001,5.1 -7.6,8.999997 -13.000001,10.999997 -0.60004,0.22 -1.101562,0.45953 -1.101562,0.51953 -0.0054,0.0188 0.02253,0.0292 0.07813,0.0332 0.3896,0.0287 2.171875,-0.28414 3.921875,-0.71289 5.200001,-1.3 9.756248,-3.087497 13.156248,-6.187497 1.5,-1.3 4.36485,-4.20429 5.46485,-5.90429 3.700004,-5.600002 6.136714,-13.308596 7.136714,-21.308596 0.50539,-5.068016 1.0188,-9.37163 1.02344,-13.97461 -0.1396,-5.2295 -1.32802,-9.349572 -3.48242,-12.638671 -3.600004,-6.2 -10.521094,-10.783204 -17.621098,-11.783204 -5.8,-0.96 -10.953125,0.200938 -15.953125,2.960938 -0.74001,0.38 -1.447265,0.799531 -1.447265,0.769531 -0.057,-0.065 0.39,-2.400391 0.75,-3.900391 0.99,-4.1 2.899218,-9 4.699218,-12 3,-5.1 7.6,-9.0000004 13,-11.0000004 0.60004,-0.22 1.101566,-0.459531 1.101566,-0.519531 0.005,-0.0188 -0.0225,-0.0292 -0.0781,-0.0332 z"
       id="NH_HU"
       inkscape:label="NH_HU" />
    <path
       id="TD"
       style="opacity:1;fill:#d40000;fill-rule:evenodd"
       d="m 140.44046,25.090834 a 24.799999,24.700001 0 0 0 -24.80078,24.699219 24.799999,24.700001 0 0 0 24.80078,24.701172 24.799999,24.700001 0 0 0 24.79883,-24.701172 24.799999,24.700001 0 0 0 -24.79883,-24.699219 z m 0.21875,10.814453 a 14,14 0 0 1 14,14 14,14 0 0 1 -14,14 14,14 0 0 1 -14,-14 14,14 0 0 1 14,-14 z"
       inkscape:label="TD" />
    <path
       id="EX"
       style="opacity:1;fill:#d40000;fill-rule:evenodd"
       inkscape:label="EX"
       d="M 195,25 A 24.799999,24.700001 0 0 0 170.19922,49.69922 24.799999,24.700001 0 0 0 195,74.40039 24.799999,24.700001 0 0 0 219.79883,49.69922 24.799999,24.700001 0 0 0 195,25 Z m 0.21875,10.81445 a 14,14 0 0 1 7.79297,2.36914 l -7.8125,7.8125 -7.79492,-7.79296 a 14,14 0 0 1 7.81445,-2.38868 z m 11.37891,5.85352 a 14,14 0 0 1 2.62109,8.14648 14,14 0 0 1 -2.38867,7.8125 l -8.0957,-8.0957 z m -22.75391,0.04492 7.81836,7.81836 -8.07422,8.07422 a 14,14 0 0 1 -2.36914,-7.79102 14,14 0 0 1 2.625,-8.10156 z m 11.35547,11.35352 8.1211,8.12109 a 14,14 0 0 1 -8.10157,2.62695 14,14 0 0 1 -8.125,-2.64257 z" />
  </g>
</svg>
