<?xml version="1.0" encoding="UTF-8"?>
<!-- Created with Inkscape (http://www.inkscape.org/) -->
<svg width="200" height="200" version="1.0" xmlns="http://www.w3.org/2000/svg">
 <g fill="#800000" stroke="#000" stroke-linecap="round" stroke-width=".11">
  <path id="SH_TS" d="m20.527 100.05c-0.055655 0.00409-0.0835 0.01445-0.078125 0.0332 0 0.06 0.50156 0.29953 1.1016 0.51953 5.4 2 10 5.9 13 11 1.8 3 3.7092 7.9 4.6992 12 0.36 1.5 0.807 3.8354 0.75 3.9004 0 0.03-0.66039-0.25086-1.4004-0.63086-5-2.76-10.2-4.0596-16-3.0996-7.1 1-13.4 5.8-17 12-2.1544 3.2891-3.1768 7.2085-3.3164 12.438h0.019531c-0.074057 1.405-0.087933 2.8939-0.023438 4.5195 0.11 2.7 0.46945 7.6996 0.68945 9.5996 1 8 3.3996 15.4 7.0996 21 1.1 1.7 3.6016 4.5008 5.1016 5.8008 3.4 3.1 7.8 5.2 13 6.5 1.75 0.42875 3.5323 0.74162 3.9219 0.71289 0.0556-4e-3 0.083525-0.0144 0.078125-0.0332 0-0.06-0.50156-0.29953-1.1016-0.51953-5.4-2-10-5.9-13-11-1.8-3-3.7092-7.9-4.6992-12-0.36-1.5-0.807-3.8354-0.75-3.9004 0-0.03 0.66039 0.25086 1.4004 0.63086 5 2.76 10.2 4.0596 16 3.0996 7.1-1 13.4-5.8 17-12 2.1544-3.2891 3.1768-7.2085 3.3164-12.438h-0.019532c0.074094-1.405 0.087902-2.8939 0.023438-4.5195-0.11-2.7-0.46945-7.6996-0.68945-9.5996-1-8-3.3996-15.4-7.0996-21-1.1-1.7-3.6016-4.5008-5.1016-5.8008-3.4-3.1-7.8-5.2-13-6.5-1.75-0.42875-3.5323-0.74163-3.9219-0.71289zm5.791 34.162a14 14 0 0 1 13.998 13.971h-0.015625a14 14 0 0 1-14 13.998 14 14 0 0 1-13.998-13.971h0.015625a14 14 0 0 1 14-13.998z"/>
  <path id="SH_HU" d="m77.062 100.07c-0.05565 4e-3 -0.083495 0.0144-0.078125 0.0332 0 0.06 0.50156 0.29953 1.1016 0.51953 5.4 2 10 5.9 13 11 1.8 3 3.7092 7.9 4.6992 12 0.36 1.5 0.807 3.8354 0.75 3.9004 0 0.03-0.66039-0.25086-1.4004-0.63086-5-2.76-10.2-4.0596-16-3.0996-7.1 1-13.4 5.8-17 12-2.1544 3.2891-3.1768 7.2085-3.3164 12.438h0.019532c-0.07406 1.405-0.087928 2.8939-0.023438 4.5195 0.11 2.7 0.46945 7.6996 0.68945 9.5996 1 8 3.3996 15.4 7.0996 21 1.1 1.7 3.6016 4.5008 5.1016 5.8008 3.4 3.1 7.8 5.2 13 6.5 1.75 0.42875 3.5323 0.74162 3.9219 0.71289 0.0556-4e-3 0.083525-0.01441 0.078125-0.03321 0-0.06-0.50156-0.29953-1.1016-0.51953-5.4-2-10-5.9-13-11-1.8-3-3.7092-7.9-4.6992-12-0.36-1.5-0.807-3.8354-0.75-3.9004 0-0.03 0.66039 0.25086 1.4004 0.63086 5 2.76 10.2 4.0596 16 3.0996 7.1-1 13.4-5.8 17-12 2.1544-3.2891 3.1768-7.2085 3.3164-12.438h-0.01953c0.0741-1.405 0.08794-2.8939 0.02344-4.5195-0.11-2.7-0.46945-7.6996-0.68945-9.5996-1-8-3.3996-15.4-7.0996-21-1.1-1.7-3.6016-4.5008-5.1016-5.8008-3.4-3.1-7.8-5.2-13-6.5-1.75-0.42875-3.5323-0.74163-3.9219-0.71289z"/>
  <path id="NH_TS" d="m19.621 97.936c-0.05565-4e-3 -0.0835-0.0144-0.07813-0.0332 0-0.06 0.50156-0.29953 1.1016-0.51953 5.4-2 10-5.9 13-11 1.8-3 3.7092-7.9 4.6992-12 0.36-1.5 0.807-3.8354 0.75-3.9004 0-0.03-0.66039 0.25086-1.4004 0.63086-5 2.76-10.2 4.0596-16 3.0996-7.1-1-13.4-5.8-17-12-2.1544-3.2891-3.1768-7.2085-3.3164-12.438h0.01953c-0.07406-1.405-0.08793-2.8939-0.02344-4.5195 0.11-2.7 0.46945-7.6996 0.68945-9.5996 1-8 3.3996-15.4 7.0996-21 1.1-1.7 3.6016-4.5008 5.1016-5.8008 3.4-3.1 7.8-5.2 13-6.5 1.75-0.42875 3.5323-0.74162 3.9219-0.71289 0.0556 4e-3 0.08353 0.0144 0.07813 0.0332 0 0.06-0.50156 0.29953-1.1016 0.51953-5.4 2-10 5.9-13 11-1.8 3-3.7092 7.9-4.6992 12-0.36 1.5-0.807 3.8354-0.75 3.9004 0 0.03 0.66039-0.25086 1.4004-0.63086 5-2.76 10.2-4.0596 16-3.0996 7.1 1 13.4 5.8 17 12 2.1544 3.2891 3.1768 7.2085 3.3164 12.438h-0.01953c0.07409 1.405 0.0879 2.8939 0.02344 4.5195-0.11 2.7-0.46945 7.6996-0.68945 9.5996-1 8-3.3996 15.4-7.0996 21-1.1 1.7-3.6016 4.5008-5.1016 5.8008-3.4 3.1-7.8 5.2-13 6.5-1.75 0.42875-3.5323 0.74163-3.9219 0.71289zm5.791-34.162a14 14 0 0 0 13.998-13.971h-0.01563a14 14 0 0 0-14-13.998 14 14 0 0 0-13.998 13.971h0.01563a14 14 0 0 0 14 13.998z"/>
  <path id="NH_HU" d="m76.156 97.908c-0.0556-4e-3 -0.0835-0.0144-0.0781-0.0332 0-0.06 0.50156-0.29953 1.1016-0.51953 5.4-2 10-5.9 13-11 1.8-3 3.7092-7.9 4.6992-12 0.36-1.5 0.807-3.8354 0.75-3.9004 0-0.03-0.66039 0.25086-1.4004 0.63086-5 2.76-10.2 4.0596-16 3.0996-7.1-1-13.4-5.8-17-12-2.1544-3.2891-3.1768-7.2085-3.3164-12.438h0.01953c-0.07406-1.405-0.08793-2.8939-0.02344-4.5195 0.11-2.7 0.46945-7.6996 0.68945-9.5996 1-8 3.3996-15.4 7.0996-21 1.1-1.7 3.6016-4.5008 5.1016-5.8008 3.4-3.1 7.8-5.2 13-6.5 1.75-0.42875 3.5323-0.74162 3.9219-0.71289 0.0556 4e-3 0.0835 0.0144 0.0781 0.0332 0 0.06-0.50156 0.29953-1.1016 0.51953-5.4 2-10 5.9-13 11-1.8 3-3.7092 7.9-4.6992 12-0.36 1.5-0.807 3.8354-0.75 3.9004 0 0.03 0.66039-0.25086 1.4004-0.63086 5-2.76 10.2-4.0596 16-3.0996 7.1 1 13.4 5.8 17 12 2.1544 3.2891 3.1768 7.2085 3.3164 12.438h-0.0195c0.0741 1.405 0.0879 2.8939 0.0234 4.5195-0.11 2.7-0.46945 7.6996-0.68945 9.5996-1 8-3.3996 15.4-7.0996 21-1.1 1.7-3.6016 4.5008-5.1016 5.8008-3.4 3.1-7.8 5.2-13 6.5-1.75 0.42875-3.5323 0.74163-3.9219 0.71289z"/>
 </g>
</svg>
